HIERARCHY
ROOT Hips
{
  OFFSET 0.000000 0.000000 0.000000
  CHANNELS 6 Xposition Yposition Zposition Xrotation Yrotation Zrotation
  JOINT Spine
  {
    OFFSET -6.423313 -17.000212 -13.334487
    CHANNELS 3 Xrotation Yrotation Zrotation
    JOINT Chest
    {
      OFFSET -6.423313 -17.000212 -13.334487
      CHANNELS 3 Xrotation Yrotation Zrotation
      JOINT Neck
      {
        OFFSET -8.565987 -10.465851 -10.311200
        CHANNELS 3 Xrotation Yrotation Zrotation
        JOINT Head
        {
          OFFSET -6.506337 7.210322 -3.531532
          CHANNELS 3 Xrotation Yrotation Zrotation
          End Site
          {
            OFFSET 0.0 5.0 2.0
          }
        }
      }
      JOINT LeftShoulder
      {
        OFFSET 16.191032 -0.222631 -5.090955
        CHANNELS 3 Xrotation Yrotation Zrotation
        JOINT LeftArm
        {
          OFFSET 10.448869 20.915173 -1.238295
          CHANNELS 3 Xrotation Yrotation Zrotation
          JOINT LeftForeArm
          {
            OFFSET 6.900823 23.754111 -0.858906
            CHANNELS 3 Xrotation Yrotation Zrotation
            JOINT LeftHand
            {
              OFFSET 0.929018 7.328410 -2.677089
              CHANNELS 3 Xrotation Yrotation Zrotation
              End Site
              {
                OFFSET -3.0 0.0 2.0
              }
            }
          }
        }
      }
      JOINT RightShoulder
      {
        OFFSET -16.191032 0.222631 5.090955
        CHANNELS 3 Xrotation Yrotation Zrotation
        JOINT RightArm
        {
          OFFSET -13.712075 14.695798 8.321647
          CHANNELS 3 Xrotation Yrotation Zrotation
          JOINT RightForeArm
          {
            OFFSET -17.210048 12.326384 -1.738171
            CHANNELS 3 Xrotation Yrotation Zrotation
            JOINT RightHand
            {
              OFFSET 5.000000 0.000000 0.000000
              CHANNELS 3 Xrotation Yrotation Zrotation
              End Site
              {
                OFFSET 3.0 0.0 2.0
              }
            }
          }
        }
      }
    }
  }
  JOINT LeftUpLeg
  {
    OFFSET 12.282434 -0.310965 -0.080493
    CHANNELS 3 Xrotation Yrotation Zrotation
    JOINT LeftLeg
    {
      OFFSET 9.663075 41.630832 -4.887251
      CHANNELS 3 Xrotation Yrotation Zrotation
      JOINT LeftFoot
      {
        OFFSET -5.787469 21.882853 26.702196
        CHANNELS 3 Xrotation Yrotation Zrotation
        JOINT LeftToeBase
        {
          OFFSET 2.886885 12.176341 -6.834447
          CHANNELS 3 Xrotation Yrotation Zrotation
          End Site
          {
            OFFSET 0.0 -1.0 3.0
          }
        }
      }
    }
  }
  JOINT RightUpLeg
  {
    OFFSET -12.282434 0.310965 0.080493
    CHANNELS 3 Xrotation Yrotation Zrotation
    JOINT RightLeg
    {
      OFFSET -1.472860 28.795469 -20.184857
      CHANNELS 3 Xrotation Yrotation Zrotation
      JOINT RightFoot
      {
        OFFSET 0.086358 39.286014 3.546105
        CHANNELS 3 Xrotation Yrotation Zrotation
        JOINT RightToeBase
        {
          OFFSET -4.442337 10.512209 -13.824183
          CHANNELS 3 Xrotation Yrotation Zrotation
          End Site
          {
            OFFSET 0.0 -1.0 3.0
          }
        }
      }
    }
  }
}
MOTION
Frames: 6
Frame Time: 0.033333
0.000000 0.000000 0.000000 0.240362 -22.873793 -4.223839 -25.624095 7.694819 1.439762 -4.496494 -19.084903 -26.905326 -30.030383 -46.173420 -12.804558 0.000000 0.000000 0.000000 -1.401544 -0.718666 -20.542790 -54.154699 -3.282739 -36.286443 -26.563025 -3.205241 -10.606241 0.000000 0.000000 0.000000 -29.582319 -21.993120 -21.541040 -23.996541 -39.999664 -7.480603 83.000886 60.256299 113.475007 0.000000 0.000000 0.000000 -2.208716 1.289716 5.553446 -28.807804 -8.386281 3.442299 66.443706 -10.677748 -26.692972 0.000000 0.000000 0.000000 19.014050 -3.350293 -8.816625 -3.067545 -0.697742 11.086014 96.185270 20.744240 -18.071888 0.000000 0.000000 0.000000
0.000000 0.000000 0.000000 0.030164 -7.314124 -3.757407 -24.907180 7.943077 0.424251 -5.614732 -10.646164 -23.718004 -12.315172 -26.130589 -17.254633 0.000000 0.000000 0.000000 -15.590496 3.569177 -20.086423 -55.944379 5.437167 -21.004779 -30.161217 1.011661 -4.718707 0.000000 0.000000 0.000000 -12.677064 0.261730 -26.117854 -8.105041 -21.661390 -21.396150 56.709415 38.961854 113.512420 0.000000 0.000000 0.000000 -3.261943 2.129615 9.072560 -25.804751 -6.210440 1.035722 71.315408 -10.546349 -25.714761 0.000000 0.000000 0.000000 16.082546 -1.635946 -4.683320 6.919010 -0.785440 5.078129 107.080070 23.371840 -2.757016 0.000000 0.000000 0.000000
0.000000 0.000000 0.000000 -0.000916 -4.014764 -3.535154 -22.654055 7.163872 0.664805 -6.420754 -7.179261 -24.342922 -10.220781 -25.049347 -19.177841 0.000000 0.000000 0.000000 -16.894185 3.630047 -21.668376 -46.948196 12.016462 -5.157549 -25.498324 0.226641 -5.198942 0.000000 0.000000 0.000000 -14.374620 -0.270819 -29.457940 -3.792668 -16.827515 -29.719921 40.320248 29.883891 107.975112 0.000000 0.000000 0.000000 -2.101942 1.912229 10.146786 -25.632596 -4.589884 -1.046060 71.100114 -10.172893 -28.757489 0.000000 0.000000 0.000000 12.074493 -1.751061 -4.194344 8.633439 -0.471181 2.708038 108.372870 23.507819 -1.179526 0.000000 0.000000 0.000000
0.000000 0.000000 0.000000 -0.000849 -3.517435 -3.652047 -17.325267 5.487409 0.730720 -6.475182 -7.202324 -24.563691 -10.502828 -27.298336 -21.074694 0.000000 0.000000 0.000000 -13.101432 2.753203 -20.415724 -39.744651 13.181766 2.398969 -20.596592 2.979635 0.259830 0.000000 0.000000 0.000000 -15.147391 -0.044242 -31.878305 -2.570428 -15.769294 -33.305759 34.702761 26.830949 105.284883 0.000000 0.000000 0.000000 -0.968760 1.430429 9.332678 -26.997499 -0.100215 -7.282112 71.065014 -9.300243 -35.663421 0.000000 0.000000 0.000000 8.373653 -2.394822 -4.684040 6.300864 -0.316269 2.070053 107.449277 23.283406 0.511239 0.000000 0.000000 0.000000
0.000000 0.000000 0.000000 0.010480 -3.187269 -4.286327 -13.994700 5.196798 -0.600235 -5.587175 -9.968852 -23.081370 -11.727105 -26.983474 -18.973809 0.000000 0.000000 0.000000 -10.883197 1.907794 -21.587416 -40.264105 14.726468 5.465621 -20.252574 7.022625 7.201543 0.000000 0.000000 0.000000 -14.634085 1.669957 -33.400292 -1.627909 -14.942137 -36.341258 29.611760 24.298912 101.675717 0.000000 0.000000 0.000000 -1.684372 1.526397 8.365054 -26.348095 4.030368 -12.286111 70.823223 -9.605338 -33.482548 0.000000 0.000000 0.000000 7.480472 -2.348906 -4.458680 6.801442 -0.196609 1.206350 105.601890 22.940753 2.960504 0.000000 0.000000 0.000000
0.000000 0.000000 0.000000 0.016481 -2.205917 -5.693020 -9.035193 4.203429 -1.511145 -5.512030 -9.717846 -22.586615 -14.356507 -30.557993 -18.791549 0.000000 0.000000 0.000000 -11.656597 2.428399 -19.756137 -45.436655 15.697818 3.271667 -18.687741 17.783272 25.857551 0.000000 0.000000 0.000000 -11.506848 6.567434 -33.185048 -3.565037 -19.081617 -33.875188 32.077280 25.650292 103.247553 0.000000 0.000000 0.000000 -1.783244 1.395654 7.202081 -26.483075 7.169178 -16.237414 74.526178 -9.772637 -29.753461 0.000000 0.000000 0.000000 8.631930 -2.849910 -5.490029 5.382096 -0.199078 1.357803 103.859107 22.718612 3.274855 0.000000 0.000000 0.000000
